<svg width="719" height="204" viewBox="0 0 719 204" fill="none" xmlns="http://www.w3.org/2000/svg">
<rect width="718.489" height="203.021" fill="white"/>
<path d="M176.322 28.9531C189.464 36.1876 197.444 50.1735 196.983 65.1658C196.522 80.158 187.698 93.6321 174.136 100.044C173.394 98.5893 171.017 97.3241 169.558 96.3695C189.52 83.3842 189.965 48.0457 172.375 32.7659C174.277 31.4777 175.361 31.0292 176.322 28.9531Z" fill="#2D52AC"/>
<path d="M135.913 97.8306C124.135 90.4926 117.014 77.5649 117.103 63.6883C117.191 49.8116 124.478 36.976 136.348 29.7817C138.21 31.9958 138.33 32.3351 139.048 35.1472C125.914 51.4506 126.052 77.8927 140.123 93.4715C138.971 96.853 138.053 95.1967 135.913 97.8306Z" fill="#2D52AC"/>
<path d="M136.348 29.7817C148.566 22.3804 163.808 22.0641 176.322 28.9535C175.361 31.0295 174.277 31.4781 172.375 32.7663C161.003 26.4232 149.27 26.705 139.048 35.1471C138.329 32.335 138.21 31.9957 136.348 29.7817Z" fill="#2D52AC"/>
<path d="M135.913 97.8307C138.053 95.1969 138.971 96.8531 140.123 93.4717C149.166 100.436 159.24 101.195 169.558 96.3701C171.017 97.3247 173.394 98.5899 174.136 100.045C161.848 105.859 147.448 105.025 135.913 97.8307Z" fill="#2D52AC"/>
<path d="M226.672 26.4003C241.537 26.4233 274.569 22.2769 278.644 41.8407C279.727 47.0049 278.702 52.3878 275.798 56.7929C271.457 63.4063 265.57 65.977 258.183 67.5527C267.092 78.6342 275.791 89.8825 284.276 101.292C279.664 101.545 276.46 101.585 271.847 101.407C264.124 93.402 253.213 78.0531 246.275 68.6161L237.883 68.6113C237.511 78.9911 237.737 90.9466 237.694 101.447C233.728 101.769 230.223 101.557 226.275 101.391C225.85 82.8098 226.38 64.0502 226.237 45.4579C226.189 39.1552 226.285 32.6858 226.672 26.4003ZM267.685 45.8495C266.25 28.0567 250.452 29.7473 237.829 29.9716C237.693 41.3638 237.682 52.7562 237.797 64.1484C247.424 64.0851 254.242 64.9762 262.137 58.8808C265.514 55.1199 268.113 51.1516 267.685 45.8495Z" fill="#2D52AC"/>
<path d="M394.884 26.4637C412.187 26.2394 459.24 21.9434 444.445 56.0741C441.54 62.7737 431.859 66.0398 425.29 67.6385C432.578 74.8557 445.889 92.5398 452.912 101.327C448.207 101.62 445.061 101.839 440.304 101.546C437.595 98.797 432.694 92.3503 430.036 89.0262C424.784 82.4703 419.015 75.5287 414.091 68.7831L406.064 68.7196L405.762 101.775C402.14 101.718 398.434 101.568 394.805 101.459C394.645 76.4605 394.672 51.4621 394.884 26.4637ZM430.646 34.1463C424.974 28.8672 413.372 29.8503 405.993 29.9481C405.517 40.5754 405.713 53.3649 405.901 64.1073C415.287 64.1188 422.898 65.1597 430.444 58.995C436.68 51.6743 438.532 41.49 430.646 34.1463Z" fill="#2D52AC"/>
<path d="M311.877 26.4232C318.187 26.3311 324.177 26.2103 330.483 26.5094C328.137 27.142 325.639 27.2282 323.676 28.4819C326.792 29.2813 334.804 28.5912 336.488 29.7126C332.043 30.0749 327.296 30.0231 322.814 30.0634C322.76 42.3068 322.816 54.5444 322.982 66.7878C325.131 66.9718 327.612 67.1213 329.72 67.4146C334.843 67.2421 337.288 67.1501 342.245 65.8331C344.144 66.5232 344.317 66.2012 345.084 67.5239L344.17 67.2536C347.069 69.5137 346.698 67.3456 347.1 69.1801C344.075 70.1002 343.35 70.1348 340.251 70.336C335.615 71.0491 327.883 70.8478 322.924 70.8651C322.793 81.0612 322.79 91.2516 322.918 101.448L311.776 101.54L311.877 26.4232Z" fill="#2D52AC"/>
<path d="M329.72 67.4145C334.844 67.2419 337.288 67.1499 342.246 65.833C344.144 66.5231 344.317 66.2011 345.084 67.5238L344.17 67.2535C347.069 69.5136 346.698 67.3455 347.1 69.18C344.075 70.1001 343.35 70.1346 340.251 70.3359C336.985 70.0944 326.37 70.3876 324.265 68.7832L325.406 68.0529C327.453 68.2886 327.936 68.4669 329.72 67.4145Z" fill="#2D52AC"/>
<path d="M330.482 26.5094C339.383 26.2391 353.028 26.2276 359.482 33.1631C371.766 46.3726 364.41 65.9654 347.1 69.1801C346.698 67.3456 347.068 69.5137 344.169 67.2536L345.083 67.5239C344.317 66.2012 344.143 66.5232 342.245 65.8331C358.061 58.1444 359.34 31.5931 336.488 29.7126C334.804 28.5912 326.791 29.2813 323.675 28.4819C325.639 27.2282 328.137 27.142 330.482 26.5094Z" fill="#2D52AC"/>
<path d="M479.695 26.1875C486.908 26.3543 522.284 26.1472 526.478 27.3836L526.161 28.1198C519.54 31.4782 498.89 29.9945 490.67 30.0462C490.607 35.0897 489.859 57.1669 490.791 60.3873C497.728 60.2896 517.435 59.3407 522.664 61.3995L523.026 61.9688C521.64 64.2346 519.885 64.3094 517.412 63.9988C512.701 64.7062 495.916 64.3669 490.394 64.3554C490.233 75.4026 490.221 86.4556 490.365 97.5086C498.131 97.3073 505.959 97.5948 513.736 97.3648C517.366 97.2613 525.966 96.9162 528.238 100.05C524.798 102.04 487.15 101.54 479.729 101.701C479.125 92.9022 479.442 80.3023 479.447 71.2736C479.378 56.241 479.459 41.2143 479.695 26.1875Z" fill="#2D52AC"/>
<path d="M490.791 60.3868C497.728 60.289 517.435 59.3402 522.664 61.3989L523.026 61.9683C521.64 64.2341 519.886 64.3088 517.412 63.9983C508.473 62.5146 502.157 65.4648 491.211 62.1466L490.791 60.3868Z" fill="#2D52AC"/>
<path d="M583.551 97.4853L584.196 97.0196C590.218 92.603 594.412 83.787 588.924 77.6855C578 65.6721 550.557 65.7469 551.523 44.377C552.19 29.7298 567.917 23.9445 580.491 25.2672C585.95 25.8365 600.808 28.5509 596.045 37.2863C595.033 36.9585 595.177 37.0907 594.452 36.3776C589.896 31.8518 582.763 27.9931 576.189 28.2921C572.196 28.4704 566.876 30.6614 564.143 33.7035C561.802 36.3086 561.135 39.8281 561.359 43.2671C561.589 46.7348 563.798 49.823 566.542 51.8587C577.333 59.8638 598.841 62.4402 601.159 78.1743C601.936 83.4305 600.066 90.4004 596.603 94.4835C594.084 97.4508 591.967 99.2508 588.211 100.7C585.478 100.004 585.519 99.3773 583.551 97.4853Z" fill="#2D52AC"/>
<path d="M49.6661 100.056C39.7987 98.158 29.9279 88.4278 26.637 79.1231C19.2604 58.265 27.5597 35.7047 49.0282 27.9297C49.8352 28.8958 51.9595 31.6044 52.9288 32.1162C33.7974 45.0152 31.1284 67.5697 43.2282 86.6278C45.6154 90.3888 50.1867 92.7293 52.1079 95.2367L51.9711 96.0763L52.5969 96.9792L51.9423 98.4859L49.9204 99.1989L49.6661 100.056Z" fill="#2D52AC"/>
<path d="M645.48 98.2042C638.427 95.7371 630.346 86.5876 627.889 79.6004C624.559 70.1404 624.553 56.1718 628.89 47.0108C633.526 37.223 641.258 31.3572 651.203 27.7515C652.825 29.793 653.05 30.3106 655.235 31.5757C631.778 45.7686 630.84 77.1046 651.427 93.9026C649.708 94.6502 646.567 96.6917 645.48 98.2042Z" fill="#2D52AC"/>
<path d="M651.428 93.9024C665.693 102.58 679.246 99.5669 691.17 89.457C692.039 88.7209 692.832 89.0602 693.724 89.3133C694.483 91.3893 694.46 90.3944 693.977 92.4072C683.6 104.938 658.998 104.812 645.48 98.2039C646.567 96.6915 649.708 94.65 651.428 93.9024Z" fill="#2D52AC"/>
<path d="M49.0281 27.9301C61.5352 23.6975 75.344 23.4905 87.1165 30.3742C89.6205 31.8348 91.0901 33.0137 92.3625 35.6706L92.3389 37.3153L91.1241 38.4424C89.7809 38.3159 86.3641 35.9754 85.094 35.0955C75.1311 28.1888 64.1398 26.5613 52.9287 32.1166C51.9594 31.6048 49.8351 28.8962 49.0281 27.9301Z" fill="#2D52AC"/>
<path d="M52.1078 95.2365C77.5373 105.795 86.9071 88.2493 92.3441 88.8532C93.7086 89.8538 93.3324 89.2213 93.7161 90.6762C92.6812 93.3331 90.3395 94.5752 88.0599 96.0877C77.0432 103.38 62.012 104.11 49.666 100.056L49.9203 99.1988L51.9422 98.4857L52.5968 96.979L51.9709 96.0762L52.1078 95.2365Z" fill="#2D52AC"/>
<path d="M651.203 27.7514C663.628 23.9213 675.046 23.7259 686.902 29.8102C689.312 31.0466 693.528 33.4907 694.489 36.0555L694.149 37.3437C693.39 37.7577 692.061 38.7296 691.187 38.12C678.975 29.6779 670.036 25.5028 655.235 31.5756C653.05 30.3105 652.825 29.7929 651.203 27.7514Z" fill="#2D52AC"/>
<path d="M553.168 88.1577C561.773 97.1749 571.241 102.172 583.551 97.4854C585.518 99.3775 585.478 100.004 588.21 100.7C574.946 104.731 564.304 103.242 552.219 96.8011L553.168 88.1577Z" fill="#2D52AC"/>
<path d="M421.296 142.428L422.113 141.025C427.238 139.875 439.588 173.086 439.64 178.06L439.071 178.578C436.022 175.927 435.257 173.333 433.687 169.641C428.349 169.497 417.598 168.79 412.818 170.44C412.697 168.399 412.518 167.232 414.29 165.989C419.64 166.225 426.617 166.035 432.099 166.053C428.878 159.157 426.399 151.658 422.999 144.712L421.296 142.428Z" fill="#7F5812" stroke="#7F5812" stroke-width="2"/>
<path d="M421.296 142.429L422.999 144.712C420.923 150.445 417.356 161.015 414.29 165.99C412.518 167.232 412.697 168.399 412.818 170.441C411.581 173.506 410.189 179.055 406.494 179.021L405.945 177.997C406.733 172.626 418.317 148.105 421.296 142.429Z" fill="#7F5812" stroke="#7F5812" stroke-width="2"/>
<path d="M285.843 141.146C292.351 141.676 303.507 140.83 309.369 142.774L309.323 143.337L308.641 142.653L308.75 143.556C305.811 144.453 292.792 144.378 289.254 144.401L289.629 158.002L298.559 158.353C301.648 158.462 303.985 158.416 306.977 159.238L307.393 159.819C306.323 160.44 306.772 160.343 305.602 160.423C300.404 161.004 294.836 160.895 289.583 160.923C289.561 164.265 288.933 172.822 290.604 175.335C291.022 175.967 292.741 175.904 293.729 176.008C297.52 175.226 306.341 174.909 309.832 176.761C308.735 178.722 300.79 178.36 298.381 178.423L285.375 178.699C286.231 167.675 286.007 152.314 285.843 141.146Z" fill="#7F5812" stroke="#7F5812" stroke-width="2"/>
<path d="M293.729 176.008C297.52 175.226 306.341 174.909 309.832 176.761C308.735 178.722 300.79 178.36 298.381 178.423C295.903 176.974 292.493 177.181 289.546 177.077C290.724 176.301 292.282 176.232 293.729 176.008Z" fill="#7F5812" stroke="#7F5812" stroke-width="2"/>
<path d="M298.559 158.353C301.648 158.462 303.985 158.416 306.977 159.238L307.394 159.819C306.323 160.44 306.772 160.342 305.602 160.423C301.705 160.02 298.043 160.544 293.848 159.877C295.148 158.916 296.87 158.749 298.559 158.353Z" fill="#7F5812" stroke="#7F5812" stroke-width="2"/>
<path d="M365.864 178.681C350.887 179.498 338.055 172.034 341.743 155.04C342.727 150.319 345.653 146.236 349.802 143.786C355.774 140.209 361.475 140.761 367.881 142.296C365.981 142.515 363.824 142.164 363.133 144.102C357.088 144.263 353.365 144.344 348.84 148.835C342.686 154.942 343.281 166.496 349.805 172.057C354.516 176.076 359.953 176.226 365.722 175.91L370.183 176.439C368.197 177.215 367.481 177.365 365.864 178.681Z" fill="#7F5812" stroke="#7F5812" stroke-width="2"/>
<path d="M232.02 140.916C233.317 141.048 233.743 141.186 234.981 141.514C236.287 143.774 235.366 171.223 235.28 175.938C238.83 175.846 251.287 175.283 253.963 176.329L254.154 177.784C249.715 178.457 236.831 178.411 231.719 178.532C232.339 166.196 231.66 153.412 232.02 140.916Z" fill="#7F5812" stroke="#7F5812" stroke-width="2"/>
<path d="M473.308 178.802C473.509 171.97 472.807 145.948 473.923 141.434C475.638 140.738 474.798 140.795 476.5 141.089C477.484 142.843 476.811 172.154 476.777 176.186C479.756 176.025 481.217 176.007 484.203 176.226L483.162 176.652L485.238 178.336L473.308 178.802Z" fill="#7F5812" stroke="#7F5812" stroke-width="2"/>
<path d="M194.911 160.544C192.64 161.705 120.672 160.641 112.083 160.555L111.965 160.038C117.401 159.445 123.543 158.698 128.965 159.261C136.431 159.233 198.714 158.583 201.032 159.888C198.615 160.653 197.42 160.521 194.911 160.544Z" fill="#7F5812" stroke="#7F5812" stroke-width="2"/>
<path d="M194.911 160.544C192.64 161.705 120.672 160.641 112.083 160.555L111.965 160.038C117.401 159.445 123.543 158.698 128.965 159.261C133.479 161.947 184.818 159.428 194.911 160.544Z" fill="#7F5812" stroke="#7F5812" stroke-width="2"/>
<path d="M522.099 159.445C530.071 158.669 543.71 159.06 552.148 159.071C570.274 159.123 588.399 159.273 606.524 159.526L606.058 160.043C599 159.934 591.102 160.48 583.918 160.624C570.193 160.808 556.462 160.871 542.732 160.82C538.515 160.797 525.769 160.946 522.087 160.193L522.099 159.445Z" fill="#7F5812" stroke="#7F5812" stroke-width="2"/>
<path d="M371.191 159.882L373.566 160.003C375.363 162.217 374.529 173.293 374.487 176.985C371.588 177.652 368.826 178.365 365.864 178.682C367.481 177.365 368.197 177.215 370.183 176.439L365.722 175.91L368.496 175.093C371.13 172.385 370.245 167.364 370.487 162.821L371.191 159.882Z" fill="#7F5812" stroke="#7F5812" stroke-width="2"/>
<path d="M484.202 176.226C487.74 176.203 491.341 175.985 494.741 176.928L495.212 177.515C492.376 178.475 488.321 178.314 485.238 178.337L483.161 176.652L484.202 176.226Z" fill="#7F5812" stroke="#7F5812" stroke-width="2"/>
<path d="M367.881 142.297C370.194 143.384 371.368 143.723 373.086 145.632L372.62 146.115C368.171 145.707 367.047 144.729 363.133 144.103C363.824 142.165 365.981 142.515 367.881 142.297Z" fill="#7F5812" stroke="#7F5812" stroke-width="2"/>
<path d="M358.173 161.044C362.612 160.233 366.705 160.112 371.191 159.882L370.487 162.821C365.995 162.372 362.601 162.091 358.173 161.044Z" fill="#7F5812" stroke="#7F5812" stroke-width="2"/>
</svg>
